<svg width="21" height="23" viewBox="0 0 21 23" fill="none" xmlns="http://www.w3.org/2000/svg">
<path fill-rule="evenodd" clip-rule="evenodd" d="M10.5 0C6.10683 0 2.54545 3.56137 2.54545 7.95454V11.7597C2.54545 12.4663 2.63758 13.1514 2.81048 13.8036C1.24542 13.88 0 15.1731 0 16.7571C0 18.3903 1.32396 19.7143 2.95714 19.7143H10.5H18.0429C19.676 19.7143 21 18.3903 21 16.7571C21 15.1731 19.7546 13.88 18.1895 13.8036C18.3624 13.1514 18.4545 12.4663 18.4545 11.7597V7.95455C18.4545 3.56137 14.8932 0 10.5 0Z" fill="#D4D3CF"/>
<path fill-rule="evenodd" clip-rule="evenodd" d="M7.63635 20.3714C7.79463 21.85 9.00852 23 10.4825 23C11.9565 23 13.1704 21.85 13.3287 20.3714H7.63635Z" fill="#D4D3CF"/>
</svg>
