<svg width="30" height="28" viewBox="0 0 30 28" fill="none" xmlns="http://www.w3.org/2000/svg">
<path d="M13.5732 1.08188C14.2603 0.0793774 15.7397 0.0793762 16.4268 1.08188L20.295 6.72606C20.5199 7.05425 20.8511 7.29486 21.2327 7.40736L27.796 9.34209C28.9618 9.68573 29.4189 11.0928 28.6778 12.056L24.5052 17.4791C24.2626 17.7944 24.1361 18.1837 24.1471 18.5814L24.3352 25.4213C24.3686 26.6362 23.1717 27.5058 22.0266 27.0986L15.5795 24.8061C15.2047 24.6728 14.7953 24.6728 14.4205 24.8061L7.97344 27.0986C6.82834 27.5058 5.63141 26.6362 5.66483 25.4213L5.85295 18.5814C5.86389 18.1837 5.73739 17.7944 5.49477 17.4791L1.32218 12.056C0.581051 11.0928 1.03824 9.68573 2.20399 9.34209L8.76727 7.40736C9.14889 7.29486 9.48007 7.05425 9.70499 6.72606L13.5732 1.08188Z" fill="#4BBB7D"/>
</svg>
