<svg width="104" height="122" viewBox="0 0 104 122" fill="none" xmlns="http://www.w3.org/2000/svg">
<path fill-rule="evenodd" clip-rule="evenodd" d="M3.80467 3.81333C6.2403 1.37466 9.54468 0.00303424 12.9913 0L61.412 0C64.8587 0.00303424 68.163 1.37466 70.5987 3.81333L100.187 33.4013C102.625 35.837 103.997 39.1413 104 42.588V108.333C104 111.781 102.63 115.088 100.192 117.526C97.7544 119.964 94.4478 121.333 91 121.333H13C9.55219 121.333 6.24558 119.964 3.80761 117.526C1.36964 115.088 0 111.781 0 108.333V13C0 9.55067 1.36067 6.24 3.80467 3.81333ZM44.2953 39.234C44.9913 39.7298 45.5827 40.3579 46.0356 41.0824C46.4886 41.807 46.7943 42.6137 46.9351 43.4565C47.076 44.2993 47.0493 45.1616 46.8566 45.9941C46.6639 46.8266 46.3089 47.6129 45.812 48.308L33.7047 65.26C33.1556 66.027 32.4463 66.6654 31.6258 67.1307C30.8053 67.5961 29.8934 67.8772 28.9533 67.9548C28.0132 68.0323 27.0675 67.9043 26.1819 67.5796C25.2963 67.2549 24.4919 66.7414 23.8247 66.0747L16.562 58.812C15.4138 57.5798 14.7888 55.9501 14.8185 54.2661C14.8482 52.5822 15.5304 50.9755 16.7213 49.7846C17.9122 48.5937 19.5189 47.9115 21.2028 47.8818C22.8867 47.8521 24.5165 48.4772 25.7487 49.6253L27.586 51.454L35.23 40.7593C36.2311 39.3562 37.7486 38.4082 39.4486 38.1238C41.1486 37.8394 42.892 38.2332 44.2953 39.234ZM52.5287 55.2413C52.5287 53.5174 53.2135 51.8641 54.4325 50.6451C55.6515 49.4262 57.3048 48.7413 59.0287 48.7413H80.6953C82.4192 48.7413 84.0725 49.4262 85.2915 50.6451C86.5105 51.8641 87.1953 53.5174 87.1953 55.2413C87.1953 56.9652 86.5105 58.6185 85.2915 59.8375C84.0725 61.0565 82.4192 61.7413 80.6953 61.7413H59.0287C57.3048 61.7413 55.6515 61.0565 54.4325 59.8375C53.2135 58.6185 52.5287 56.9652 52.5287 55.2413ZM52.5287 89.6393C52.5287 87.9154 53.2135 86.2621 54.4325 85.0431C55.6515 83.8242 57.3048 83.1393 59.0287 83.1393H80.6953C82.4192 83.1393 84.0725 83.8242 85.2915 85.0431C86.5105 86.2621 87.1953 87.9154 87.1953 89.6393C87.1953 91.3633 86.5105 93.0165 85.2915 94.2355C84.0725 95.4545 82.4192 96.1393 80.6953 96.1393H59.0287C57.3048 96.1393 55.6515 95.4545 54.4325 94.2355C53.2135 93.0165 52.5287 91.3633 52.5287 89.6393ZM45.812 83.2433C46.332 82.5504 46.7082 81.7606 46.9186 80.9202C47.129 80.0799 47.1693 79.2059 47.0371 78.3497C46.9049 77.4936 46.6028 76.6725 46.1487 75.9347C45.6947 75.1969 45.0977 74.5574 44.3929 74.0536C43.6881 73.5499 42.8897 73.1921 42.0447 73.0013C41.1996 72.8105 40.325 72.7906 39.4721 72.9427C38.6193 73.0947 37.8054 73.4158 37.0784 73.8869C36.3514 74.358 35.7259 74.9697 35.2387 75.686L27.586 86.3893L25.7487 84.552C24.5165 83.4038 22.8867 82.7788 21.2028 82.8085C19.5189 82.8382 17.9122 83.5204 16.7213 84.7113C15.5304 85.9022 14.8482 87.5089 14.8185 89.1928C14.7888 90.8767 15.4138 92.5065 16.562 93.7387L23.8247 101.001C24.4919 101.668 25.2963 102.182 26.1819 102.506C27.0675 102.831 28.0132 102.959 28.9533 102.881C29.8934 102.804 30.8053 102.523 31.6258 102.057C32.4463 101.592 33.1556 100.954 33.7047 100.187L45.812 83.2433Z" fill="#4BBB7D"/>
</svg>
