<svg width="34" height="33" viewBox="0 0 34 33" fill="none" xmlns="http://www.w3.org/2000/svg">
<path fill-rule="evenodd" clip-rule="evenodd" d="M1.55781 14.168C1.32274 14.3873 1.13527 14.6525 1.00705 14.9472C0.878837 15.2419 0.812613 15.5599 0.8125 15.8813L0.8125 29.2969C0.8125 30.2293 1.1829 31.1236 1.8422 31.7829C2.50151 32.4422 3.39572 32.8126 4.32812 32.8126H14.875V25.7813C14.875 25.1597 15.1219 24.5636 15.5615 24.124C16.001 23.6845 16.5971 23.4376 17.2188 23.4376C17.8404 23.4376 18.4365 23.6845 18.876 24.124C19.3156 24.5636 19.5625 25.1597 19.5625 25.7813V32.8126H30.1094C31.0418 32.8126 31.936 32.4422 32.5953 31.7829C33.2546 31.1236 33.625 30.2293 33.625 29.2969V15.8813C33.6249 15.5599 33.5587 15.2419 33.4304 14.9472C33.3022 14.6525 33.1148 14.3873 32.8797 14.168L17.9805 0.281327C17.7682 0.0997692 17.4981 0 17.2188 0C16.9394 0 16.6693 0.0997692 16.457 0.281327L1.55781 14.168Z" fill="#EDEAE4"/>
</svg>
