<svg width="27" height="33" viewBox="0 0 27 33" fill="none" xmlns="http://www.w3.org/2000/svg">
<path fill-rule="evenodd" clip-rule="evenodd" d="M7.65625 0C7.19005 0 6.74294 0.185198 6.41329 0.514851C6.08363 0.844505 5.89844 1.29161 5.89844 1.75781C5.89844 2.22401 6.08363 2.67112 6.41329 3.00077C6.74294 3.33043 7.19005 3.51562 7.65625 3.51562H22.8906C23.046 3.51562 23.1951 3.57736 23.3049 3.68724C23.4148 3.79713 23.4766 3.94616 23.4766 4.10156V26.3672C23.4766 26.8334 23.6618 27.2805 23.9914 27.6101C24.3211 27.9398 24.7682 28.125 25.2344 28.125C25.7006 28.125 26.1477 27.9398 26.4773 27.6101C26.807 27.2805 26.9922 26.8334 26.9922 26.3672V4.10156C26.9922 3.01376 26.5601 1.97051 25.7909 1.20132C25.0217 0.432128 23.9784 0 22.8906 0H7.65625ZM0.625 9.375C0.625 8.4426 0.995395 7.54839 1.6547 6.88908C2.31401 6.22977 3.20822 5.85938 4.14062 5.85938H17.0312C17.9637 5.85938 18.8579 6.22977 19.5172 6.88908C20.1765 7.54839 20.5469 8.4426 20.5469 9.375V29.2969C20.5469 30.2293 20.1765 31.1235 19.5172 31.7828C18.8579 32.4421 17.9637 32.8125 17.0312 32.8125H4.14062C3.20822 32.8125 2.31401 32.4421 1.6547 31.7828C0.995395 31.1235 0.625 30.2293 0.625 29.2969V9.375ZM4.43359 11.7188C4.43359 10.9102 5.08984 10.2539 5.89844 10.2539H15.2734C15.6619 10.2539 16.0345 10.4082 16.3092 10.6829C16.584 10.9577 16.7383 11.3302 16.7383 11.7188C16.7383 12.1073 16.584 12.4798 16.3092 12.7546C16.0345 13.0293 15.6619 13.1836 15.2734 13.1836H5.89844C5.50994 13.1836 5.13735 13.0293 4.86264 12.7546C4.58793 12.4798 4.43359 12.1073 4.43359 11.7188ZM5.89844 16.1133C5.50994 16.1133 5.13735 16.2676 4.86264 16.5423C4.58793 16.817 4.43359 17.1896 4.43359 17.5781C4.43359 17.9666 4.58793 18.3392 4.86264 18.6139C5.13735 18.8886 5.50994 19.043 5.89844 19.043H15.2734C15.6619 19.043 16.0345 18.8886 16.3092 18.6139C16.584 18.3392 16.7383 17.9666 16.7383 17.5781C16.7383 17.1896 16.584 16.817 16.3092 16.5423C16.0345 16.2676 15.6619 16.1133 15.2734 16.1133H5.89844ZM4.43125 23.4375C4.43125 22.6289 5.0875 21.9727 5.89609 21.9727H10.5836C10.9721 21.9727 11.3447 22.127 11.6194 22.4017C11.8941 22.6764 12.0484 23.049 12.0484 23.4375C12.0484 23.826 11.8941 24.1986 11.6194 24.4733C11.3447 24.748 10.9721 24.9023 10.5836 24.9023H5.89609C5.70373 24.9023 5.51325 24.8645 5.33552 24.7908C5.1578 24.7172 4.99632 24.6093 4.86029 24.4733C4.72427 24.3373 4.61637 24.1758 4.54275 23.9981C4.46914 23.8203 4.43125 23.6299 4.43125 23.4375Z" fill="#4BBB7D"/>
</svg>
