<svg width="105" height="105" viewBox="0 0 105 105" fill="none" xmlns="http://www.w3.org/2000/svg">
<path fill-rule="evenodd" clip-rule="evenodd" d="M52.9928 0C72.4999 0 88.7485 16.2485 88.7485 35.7482C88.7485 42.1167 86.5611 48.3958 83.5034 54.0798C80.4308 59.7936 76.3686 65.1205 72.3363 69.6588C68.8208 73.6069 65.04 77.3106 61.0204 80.7441C59.7076 81.869 58.3526 82.9436 56.9582 83.9655C56.4879 84.3074 56.0039 84.63 55.5075 84.9327C55.0956 85.1774 54.6623 85.3841 54.2129 85.5502C53.2179 85.8715 52.1367 85.7914 51.1998 85.327C50.95 85.2085 50.7066 85.0769 50.4707 84.9327C49.9714 84.6228 49.4849 84.2927 49.0125 83.9432C47.6203 82.9163 46.2678 81.8368 44.9578 80.7069C40.9427 77.2551 37.1646 73.5367 33.6494 69.5769C29.617 65.0238 25.5549 59.682 22.4897 53.9906C19.4319 48.3214 17.2372 42.0646 17.2372 35.7482C17.2372 16.2485 33.4857 0 52.9928 0ZM52.9928 46.4243C50.1613 46.4243 47.4458 45.2995 45.4437 43.2973C43.4415 41.2952 42.3167 38.5797 42.3167 35.7482C42.3167 32.9167 43.4415 30.2012 45.4437 28.1991C47.4458 26.1969 50.1613 25.0721 52.9928 25.0721C55.8243 25.0721 58.5398 26.1969 60.542 28.1991C62.5441 30.2012 63.6689 32.9167 63.6689 35.7482C63.6689 38.5797 62.5441 41.2952 60.542 43.2973C58.5398 45.2995 55.8243 46.4243 52.9928 46.4243ZM76.0562 75.5585C77.4251 74.0185 78.794 72.4041 80.148 70.7227H90.1397C91.6277 70.7227 92.9668 71.6154 93.562 72.9769L104.699 98.979C104.942 99.5451 105.04 100.163 104.985 100.776C104.931 101.389 104.724 101.98 104.385 102.494C104.046 103.008 103.584 103.429 103.042 103.721C102.499 104.013 101.893 104.165 101.277 104.165H4.70856C4.09267 104.165 3.48629 104.013 2.94382 103.721C2.40136 103.429 1.93979 103.008 1.60055 102.494C1.2613 101.98 1.05499 101.389 1.00014 100.776C0.945281 100.163 1.04359 99.5451 1.28625 98.979L12.4311 72.9769C12.7181 72.3073 13.1954 71.7368 13.8038 71.336C14.4122 70.9353 15.1249 70.722 15.8534 70.7227H25.9343C27.2511 72.3594 28.5903 73.9441 29.9295 75.4544C34.8546 81.0045 39.8244 85.6915 43.6931 89.0022C45.6274 90.6613 47.3162 91.993 48.6108 92.9304C49.2506 93.3991 49.8383 93.7935 50.3368 94.0985C50.7698 94.39 51.2437 94.6157 51.7429 94.7681C52.759 95.1021 53.8657 95.0219 54.823 94.5449C55.1206 94.411 55.3959 94.2473 55.6414 94.1059C56.23 93.7456 56.8034 93.3609 57.36 92.9528C58.6545 92.0154 60.3359 90.6911 62.2777 89.0469C66.1464 85.7585 71.131 81.0937 76.0487 75.5585H76.0562Z" fill="#4BBB7D"/>
</svg>
