<svg width="16" height="16" viewBox="0 0 16 16" fill="none" xmlns="http://www.w3.org/2000/svg">
<path d="M7.19742 1.17106C7.58389 0.60715 8.41611 0.607149 8.80258 1.17106L10.9784 4.34591C11.105 4.53051 11.2912 4.66586 11.5059 4.72914L15.1978 5.81743C15.8535 6.01073 16.1107 6.80221 15.6938 7.34402L13.3467 10.3945C13.2102 10.5718 13.1391 10.7908 13.1452 11.0146L13.251 14.862C13.2698 15.5454 12.5966 16.0345 11.9524 15.8055L8.32599 14.5159C8.11513 14.4409 7.88487 14.4409 7.67401 14.5159L4.04756 15.8055C3.40344 16.0345 2.73017 15.5454 2.74896 14.862L2.85478 11.0146C2.86094 10.7908 2.78978 10.5718 2.65331 10.3945L0.306224 7.34402C-0.110658 6.80221 0.146509 6.01073 0.802244 5.81743L4.49409 4.72914C4.70875 4.66586 4.89504 4.53051 5.02156 4.34591L7.19742 1.17106Z" fill="#FBFAFA"/>
</svg>
