<svg width="33" height="33" viewBox="0 0 33 33" fill="none" xmlns="http://www.w3.org/2000/svg">
<path fill-rule="evenodd" clip-rule="evenodd" d="M4.6875 6.6881e-08C4.46466 -7.52036e-05 4.24643 0.0633852 4.05838 0.18294C3.87033 0.302494 3.72026 0.473186 3.62578 0.675L0.110156 8.19609C0.0239411 8.38119 -0.0124159 8.58559 0.0046875 8.78906H0V11.0039C0 12.232 0.529687 13.4086 1.47656 14.2758C2.41875 15.143 3.70078 15.6305 5.03672 15.6305H5.73984C7.05471 15.6388 8.32526 15.1557 9.30234 14.2758C9.68672 13.9242 10.0008 13.5211 10.2398 13.0852C10.5375 12.6867 11.0203 12.6867 11.2992 13.0523C11.5406 13.5023 11.8617 13.9148 12.2531 14.2758C13.1977 15.143 14.4797 15.6305 15.8156 15.6305H17.0742C18.3891 15.6388 19.6596 15.1557 20.6367 14.2758C21.0023 13.9383 21.307 13.5562 21.5414 13.1414C21.8484 12.6609 22.3852 12.6727 22.6664 13.118C22.9031 13.5422 23.2125 13.9336 23.5852 14.2758C24.5297 15.143 25.8117 15.6305 27.1477 15.6305H27.7758C29.0906 15.6388 30.3612 15.1557 31.3383 14.2758C32.2828 13.4086 32.8125 12.232 32.8125 11.0039V8.78906H32.8078C32.8249 8.58559 32.7886 8.38119 32.7023 8.19609L29.1867 0.675C29.0922 0.473186 28.9422 0.302494 28.7541 0.18294C28.5661 0.0633852 28.3478 -7.52036e-05 28.125 6.6881e-08H4.6875ZM2.34375 30.4688V18.1148C5.12813 19.0336 8.44922 18.6234 10.7297 16.8586C13.7719 19.2117 19.0477 19.2117 22.0875 16.8586C24.3797 18.6305 27.6938 19.0336 30.4688 18.0914V30.4688C30.4688 31.0904 30.2218 31.6865 29.7823 32.126C29.3427 32.5656 28.7466 32.8125 28.125 32.8125H25.1836V23.9297C25.1831 23.861 25.1682 23.7933 25.14 23.7307C25.1117 23.6681 25.0707 23.6122 25.0195 23.5664C24.9102 23.4682 24.768 23.4147 24.6211 23.4164H19.9523C19.8054 23.4147 19.6632 23.4682 19.5539 23.5664C19.5027 23.6122 19.4617 23.6681 19.4335 23.7307C19.4052 23.7933 19.3903 23.861 19.3898 23.9297V32.8125H4.6875C4.0659 32.8125 3.46976 32.5656 3.03022 32.126C2.59068 31.6865 2.34375 31.0904 2.34375 30.4688ZM5.86406 25.2188V22.2656C5.86406 21.9548 5.98753 21.6568 6.2073 21.437C6.42707 21.2172 6.72514 21.0938 7.03594 21.0938H14.1C14.4108 21.0938 14.7089 21.2172 14.9286 21.437C15.1484 21.6568 15.2719 21.9548 15.2719 22.2656V25.2188C15.2719 25.5296 15.1484 25.8276 14.9286 26.0474C14.7089 26.2672 14.4108 26.3906 14.1 26.3906H7.03594C6.72514 26.3906 6.42707 26.2672 6.2073 26.0474C5.98753 25.8276 5.86406 25.5296 5.86406 25.2188Z" fill="#4BBB7D"/>
</svg>
