<svg width="25" height="25" viewBox="0 0 25 25" fill="none" xmlns="http://www.w3.org/2000/svg">
<path fill-rule="evenodd" clip-rule="evenodd" d="M3.1309 22.8999C7.4436 26.5253 14.8748 25.366 20.1215 20.1213C24.8692 15.3736 26.2672 8.83756 23.8051 4.44137C23.7044 4.80212 23.5943 5.16018 23.475 5.51517C22.838 7.42977 21.739 9.88807 19.9079 11.7211C18.8593 12.7697 17.5778 13.2551 16.2981 13.4881C15.0651 13.7134 13.7447 13.7134 12.5544 13.7134H12.5C11.2476 13.7134 10.133 13.7173 9.13489 13.8978C8.16206 14.0745 7.397 14.4066 6.80864 14.995C5.36589 16.4377 4.41636 18.4824 3.82606 20.2514C3.53825 21.1185 3.30606 22.0032 3.1309 22.8999ZM1.19495 20.5582C-1.26723 16.162 0.130849 9.62593 4.87851 4.87827C10.1252 -0.368424 17.5564 -1.52379 21.8691 2.09958C21.6934 2.99638 21.4605 3.88105 21.172 4.74817C20.5836 6.51519 19.6341 8.56183 18.1914 10.0046C17.603 10.5929 16.8379 10.925 15.8651 11.1017C14.867 11.2823 13.7525 11.2862 12.5 11.2862H12.4456C11.2553 11.2862 9.93491 11.2861 8.70188 11.5095C7.42224 11.7425 6.14066 12.2299 5.0921 13.2784C3.261 15.1115 2.16195 17.5698 1.52505 19.4844C1.39883 19.8611 1.29009 20.2222 1.19495 20.5582Z" fill="#B7B7B7"/>
</svg>
